<svg width="78" height="78" viewBox="0 0 78 78" fill="none" xmlns="http://www.w3.org/2000/svg">
<path fill-rule="evenodd" clip-rule="evenodd" d="M10.6364 0H67.3636C78 0 78 0 78 10.6364C78 21.2727 78 56.7273 78 67.3636C78 78 78 78 67.3636 78H10.6364C0 78 0 78 0 67.3636V10.6364C0 0 0 0 10.6364 0ZM67.3636 7.09091H10.6364C8.67826 7.09091 7.09091 8.67826 7.09091 10.6364V67.3636C7.09091 69.3217 8.67826 70.9091 10.6364 70.9091H67.3636C69.3217 70.9091 70.9091 69.3217 70.9091 67.3636V10.6364C70.9091 8.67826 69.3217 7.09091 67.3636 7.09091Z" fill="white"/>
<path d="M10.6364 7.09091H67.3636C69.3217 7.09091 70.9091 8.67826 70.9091 10.6364V67.3636C70.9091 69.3217 69.3217 70.9091 67.3636 70.9091H10.6364C8.67826 70.9091 7.09091 69.3217 7.09091 67.3636V10.6364C7.09091 8.67826 8.67826 7.09091 10.6364 7.09091Z" fill="white"/>
<path fill-rule="evenodd" clip-rule="evenodd" d="M15 6H63C72 6 72 6 72 15C72 24 72 54 72 63C72 72 72 72 63 72H15C6 72 6 72 6 63V15C6 6 6 6 15 6ZM63 12H15C13.3431 12 12 13.3431 12 15V63C12 64.6569 13.3431 66 15 66H63C64.6569 66 66 64.6569 66 63V15C66 13.3431 64.6569 12 63 12Z" fill="#060000"/>
<path d="M27.467 46.2167L31.71 44.5313C32.2256 45.6756 32.8351 46.7786 33.5328 47.8301L33.9362 48.4358L42.5386 48.4383L42.9445 47.8351C43.6422 46.7836 44.2518 45.6805 44.7674 44.5363L49.0104 46.2217C49.0523 46.2385 49.0979 46.2451 49.1431 46.2408C49.1883 46.2365 49.2317 46.2215 49.2694 46.1972C49.3071 46.1728 49.3379 46.1398 49.359 46.1012C49.3801 46.0626 49.3909 46.0195 49.3905 45.9759V42.3668C49.3905 41.7779 49.2619 41.1954 49.0129 40.6572C48.764 40.1189 48.4002 39.6367 47.9451 39.2417L46.6704 38.1471C47.5805 32.3387 46.5954 24.6315 39.6892 16.1598C39.5192 15.9444 39.2997 15.7695 39.0477 15.6489C38.7958 15.5283 38.5182 15.4652 38.2367 15.4645C37.9552 15.4637 37.6773 15.5254 37.4247 15.6448C37.1721 15.7641 36.9516 15.9378 36.7804 16.1523C29.8845 24.629 28.8994 32.3412 29.7992 38.1396L28.5323 39.2368C28.0764 39.6292 27.7112 40.1089 27.46 40.645C27.2089 41.1811 27.0774 41.7617 27.074 42.3494L27.074 45.9586C27.0701 46.0048 27.079 46.0512 27.0998 46.0931C27.1206 46.135 27.1526 46.1709 27.1925 46.1971C27.2323 46.2233 27.2788 46.2389 27.327 46.2424C27.3752 46.2458 27.4235 46.237 27.467 46.2167ZM34.9446 30.2413C34.9457 29.6169 35.1395 29.0068 35.5016 28.4881C35.8636 27.9694 36.3777 27.5653 36.9788 27.3269C37.5799 27.0885 38.2411 27.0264 38.879 27.1484C39.5168 27.2705 40.1027 27.5713 40.5626 28.0128C41.0225 28.4543 41.3358 29.0167 41.463 29.6291C41.5902 30.2414 41.5255 30.8762 41.2771 31.4533C41.0287 32.0303 40.6078 32.5238 40.0675 32.8714C39.5271 33.2189 38.8917 33.405 38.2413 33.4061C37.8081 33.4068 37.3791 33.3254 36.9788 33.1667C36.5785 33.0079 36.2148 32.7748 35.9085 32.4808C35.6022 32.1867 35.3594 31.8376 35.194 31.4533C35.0286 31.069 34.9438 30.6571 34.9446 30.2413V30.2413ZM35.9426 55.4306C35.2702 55.7408 34.693 56.2128 34.2672 56.8008C34.231 56.8547 34.1812 56.8989 34.1224 56.9293C34.0636 56.9596 33.9978 56.9752 33.931 56.9745C33.8493 56.9747 33.7695 56.9507 33.7024 56.9059C33.6354 56.861 33.5843 56.7975 33.5561 56.7238C32.9226 55.0583 32.0022 51.3697 36.5709 50.6772C36.5971 50.6758 36.6233 50.6797 36.6478 50.6887C36.6723 50.6977 36.6946 50.7116 36.7131 50.7294C36.7317 50.7472 36.7461 50.7685 36.7555 50.7921C36.7648 50.8156 36.7689 50.8407 36.7675 50.8659C36.6922 51.4735 36.767 52.0897 36.9857 52.6645C37.2045 53.2393 37.5611 53.7566 38.0267 54.1746C38.0815 54.2235 38.1535 54.2507 38.2283 54.2507C38.3032 54.2507 38.3752 54.2235 38.43 54.1746C38.8966 53.7613 39.2557 53.2486 39.4785 52.6779C39.7012 52.1071 39.7814 51.4941 39.7125 50.8882C39.7097 50.8618 39.7131 50.8351 39.7224 50.8101C39.7316 50.7851 39.7466 50.7624 39.7662 50.7436C39.7857 50.7249 39.8094 50.7105 39.8354 50.7016C39.8614 50.6927 39.8892 50.6894 39.9167 50.6921C40.7209 50.7591 43.1591 51.1588 43.4177 53.5566C43.5164 54.5897 43.1876 55.6187 42.5024 56.421C41.5328 57.5752 39.8805 59.8415 39.9969 61.5269C40.003 61.5959 39.9894 61.6652 39.9577 61.7274C39.926 61.7896 39.8773 61.8424 39.8168 61.8801C39.7562 61.9178 39.6862 61.939 39.6141 61.9415C39.542 61.944 39.4706 61.9277 39.4074 61.8943C38.1301 61.2241 35.4721 59.5362 35.9426 55.4306Z" fill="black"/>
</svg>
