<svg width="512" height="512" fill="none" xmlns="http://www.w3.org/2000/svg"><path fill-rule="evenodd" clip-rule="evenodd" d="M69.818 0h372.364C512 0 512 0 512 69.818v372.364C512 512 512 512 442.182 512H69.818C0 512 0 512 0 442.182V69.818C0 0 0 0 69.818 0zm372.364 46.545H69.818c-12.853 0-23.273 10.42-23.273 23.273v372.364c0 12.853 10.42 23.273 23.273 23.273h372.364c12.853 0 23.273-10.42 23.273-23.273V69.818c0-12.853-10.42-23.273-23.273-23.273z" fill="#fff"/><path d="M69.818 46.545h372.364c12.853 0 23.273 10.42 23.273 23.273v372.364c0 12.853-10.42 23.273-23.273 23.273H69.818c-12.853 0-23.273-10.42-23.273-23.273V69.818c0-12.853 10.42-23.273 23.273-23.273z" fill="#fff"/><path fill-rule="evenodd" clip-rule="evenodd" d="M98.462 39.385h315.076c59.077 0 59.077 0 59.077 59.077v315.076c0 59.077 0 59.077-59.077 59.077H98.461c-59.076 0-59.076 0-59.076-59.077V98.461c0-59.076 0-59.076 59.077-59.076zm315.076 39.384H98.461c-10.875 0-19.692 8.817-19.692 19.693v315.076c0 10.876 8.817 19.693 19.692 19.693h315.077c10.876 0 19.693-8.817 19.693-19.693V98.461c0-10.875-8.817-19.692-19.693-19.692z" fill="#060000"/><path d="M180.296 303.371l27.852-11.063a152.35 152.35 0 0011.965 21.654l2.648 3.975 56.466.017 2.665-3.96a152.445 152.445 0 0011.966-21.653l27.851 11.063a1.875 1.875 0 001.7-.161c.248-.16.45-.376.589-.63a1.68 1.68 0 00.206-.822V278.1c0-3.866-.844-7.689-2.478-11.222a27.704 27.704 0 00-7.01-9.291l-8.367-7.186c5.974-38.126-.492-88.717-45.825-144.326a11.9 11.9 0 00-4.211-3.354 12.406 12.406 0 00-5.323-1.211 12.435 12.435 0 00-5.331 1.184 11.906 11.906 0 00-4.229 3.332c-45.265 55.642-51.731 106.265-45.825 144.327l-8.316 7.201a27.736 27.736 0 00-7.039 9.244 26.74 26.74 0 00-2.534 11.188v23.691a1.67 1.67 0 00.17.883c.136.275.346.51.608.682.262.173.567.275.883.298.316.022.634-.036.919-.169zm49.084-104.864c.007-4.099 1.28-8.103 3.656-11.508 2.377-3.405 5.751-6.057 9.697-7.622a22.435 22.435 0 0112.473-1.172c4.187.801 8.032 2.776 11.051 5.674 3.019 2.898 5.076 6.59 5.91 10.609.835 4.02.41 8.187-1.22 11.974-1.63 3.788-4.393 7.028-7.94 9.309a22.249 22.249 0 01-11.987 3.51 22.363 22.363 0 01-8.287-1.572 21.672 21.672 0 01-7.026-4.502 20.71 20.71 0 01-4.69-6.745 20.01 20.01 0 01-1.637-7.955zm6.551 165.345c-4.413 2.036-8.203 5.135-10.998 8.994a2.543 2.543 0 01-.95.843c-.386.2-.818.302-1.256.298a2.696 2.696 0 01-1.501-.451 2.524 2.524 0 01-.96-1.195c-4.158-10.933-10.201-35.145 19.789-39.691.172-.009.344.017.505.076a1.192 1.192 0 01.707.678c.061.155.088.32.078.485a24.641 24.641 0 001.433 11.806 25.554 25.554 0 006.833 9.913c.36.321.832.499 1.324.499a1.99 1.99 0 001.324-.499c3.062-2.713 5.42-6.078 6.882-9.825a24.634 24.634 0 001.536-11.748 1.132 1.132 0 01.065-.512c.061-.164.159-.313.287-.437a1.24 1.24 0 01.455-.276c.171-.058.353-.079.534-.062 5.278.44 21.283 3.063 22.98 18.803.648 6.782-1.51 13.536-6.008 18.802-6.365 7.577-17.21 22.453-16.446 33.516.04.453-.049.908-.258 1.316a2.545 2.545 0 01-.925 1.002 2.704 2.704 0 01-2.687.093c-8.384-4.399-25.832-15.478-22.743-42.428z" fill="#000"/></svg>